<?xml version="1.0" standalone="no"?>
<!DOCTYPE svg PUBLIC "-//W3C//DTD SVG 20010904//EN"
 "http://www.w3.org/TR/2001/REC-SVG-20010904/DTD/svg10.dtd">
<svg version="1.0" xmlns="http://www.w3.org/2000/svg"
 width="512.000000pt" height="512.000000pt" viewBox="0 0 512.000000 512.000000"
 preserveAspectRatio="xMidYMid meet">
<metadata>
Created by potrace 1.11, written by Peter Selinger 2001-2013
</metadata>
<g transform="translate(0.000000,512.000000) scale(0.100000,-0.100000)"
fill="#000000" stroke="none">
<path d="M2408 5115 c-1 -1 -40 -5 -85 -9 -177 -14 -409 -63 -590 -127 -692
-244 -1210 -719 -1513 -1389 -81 -180 -167 -472 -186 -631 -3 -30 -8 -57 -10
-60 -17 -29 -24 -415 -11 -574 37 -442 215 -906 493 -1287 64 -89 84 -113 164
-202 352 -394 877 -687 1415 -791 182 -35 519 -51 710 -32 496 46 978 244
1385 566 96 76 282 263 364 366 302 376 499 843 557 1315 19 162 16 514 -7
660 -118 757 -546 1416 -1171 1803 -343 212 -668 325 -1098 382 -50 7 -410 16
-417 10z m376 -369 c17 -3 54 -8 81 -11 337 -42 751 -218 1042 -443 290 -225
508 -508 665 -862 62 -138 121 -323 142 -445 3 -16 8 -41 11 -55 18 -93 29
-227 29 -370 0 -364 -76 -680 -239 -999 -59 -115 -170 -291 -185 -291 -4 0
-11 19 -15 43 -12 70 -64 237 -103 327 -130 306 -320 479 -584 534 -126 26
-166 22 -213 -19 -133 -118 -310 -221 -462 -268 -240 -76 -544 -76 -785 -1
-154 48 -327 148 -458 264 -39 35 -50 40 -93 40 -61 0 -184 -25 -251 -52 -174
-68 -318 -212 -426 -428 -47 -93 -111 -280 -130 -378 -7 -34 -16 -62 -21 -62
-14 0 -128 182 -188 300 -106 208 -166 388 -205 610 -148 856 223 1719 949
2207 220 147 562 289 795 328 19 3 42 8 50 10 20 5 107 16 200 24 79 7 341 5
394 -3z"/>
<path d="M2527 4204 c-1 -1 -36 -4 -78 -7 -256 -20 -496 -139 -685 -339 -90
-95 -145 -175 -199 -292 -72 -154 -98 -278 -97 -466 1 -301 105 -551 318 -764
225 -226 496 -331 821 -320 337 12 625 166 838 449 144 190 209 395 208 655
-1 288 -100 531 -302 742 -185 195 -417 311 -662 333 -72 7 -159 11 -162 9z"/>
</g>
</svg>
